<?xml version="1.0" encoding="utf-8"?>
<!-- Generator: Adobe Illustrator 19.0.0, SVG Export Plug-In . SVG Version: 6.00 Build 0)  -->
<svg version="1.1" id="Layer_1" xmlns="http://www.w3.org/2000/svg" xmlns:xlink="http://www.w3.org/1999/xlink" x="0px" y="0px"
	 viewBox="0 0 200 200" style="enable-background:new 0 0 200 200;" xml:space="preserve">
<path id="XMLID_2_" d="M70.9,130c2.8-5,5.3-9.7,8-14.4c13.8-24.3,28.5-48,45.3-70.4c5.5-7.4,11.3-14.6,18.4-20.7
	c4.9-4.2,10.5-6,16.8-6c3,0,6.1,0,9.1,0c0,0.2,0.1,0.4,0.1,0.6c-1.7,2.1-3.4,4.1-5.1,6.2c-13.8,17.5-25.6,36.4-37,55.5
	c-16,26.6-30.9,53.8-44.5,81.7c-2.6,5.4-5,10.8-7.5,16.2c-1.1,2.4-2,3-4.4,2.1c-5.4-2.1-10-4.8-12.2-11.1
	c-6.6-19.1-15.3-37.4-25.8-54.7c-0.2-0.3-0.3-0.6-0.6-1.1c4.8-3.7,9.6-7.4,15.2-9.6c4.1-1.6,8.9,0.2,12,4.5
	C63.4,115.4,67.6,122.2,70.9,130z"/>
</svg>
